<mxfile host="app.diagrams.net" agent="Mozilla/5.0 (Windows NT 10.0; Win64; x64) AppleWebKit/537.36 (KHTML, like Gecko) Chrome/132.0.0.0 Safari/537.36" version="26.0.12">
  <diagram name="Página-1" id="ZG89Vh-_nIyCFlYWtU8B">
    <mxGraphModel dx="3052" dy="2458" grid="1" gridSize="10" guides="1" tooltips="1" connect="1" arrows="1" fold="1" page="1" pageScale="1" pageWidth="1169" pageHeight="827" math="0" shadow="0">
      <root>
        <mxCell id="0" />
        <mxCell id="1" parent="0" />
        <mxCell id="_icEVC4zY8jzHrzMwm_u-8" value="" style="edgeStyle=none;curved=1;rounded=0;orthogonalLoop=1;jettySize=auto;html=1;fontSize=12;startSize=8;endSize=8;" edge="1" parent="1" source="_icEVC4zY8jzHrzMwm_u-4" target="_icEVC4zY8jzHrzMwm_u-7">
          <mxGeometry relative="1" as="geometry" />
        </mxCell>
        <mxCell id="_icEVC4zY8jzHrzMwm_u-4" value="i = 0" style="rounded=0;whiteSpace=wrap;html=1;fillColor=#dae8fc;strokeColor=#6c8ebf;" vertex="1" parent="1">
          <mxGeometry x="-1863" y="-1350" width="120" height="60" as="geometry" />
        </mxCell>
        <mxCell id="_icEVC4zY8jzHrzMwm_u-6" value="" style="edgeStyle=none;curved=1;rounded=0;orthogonalLoop=1;jettySize=auto;html=1;fontSize=12;startSize=8;endSize=8;" edge="1" parent="1" source="_icEVC4zY8jzHrzMwm_u-2" target="_icEVC4zY8jzHrzMwm_u-4">
          <mxGeometry relative="1" as="geometry" />
        </mxCell>
        <mxCell id="_icEVC4zY8jzHrzMwm_u-2" value="INÍCIO" style="rounded=1;whiteSpace=wrap;html=1;fillColor=#dae8fc;strokeColor=#6c8ebf;" vertex="1" parent="1">
          <mxGeometry x="-1863" y="-1450" width="120" height="60" as="geometry" />
        </mxCell>
        <mxCell id="_icEVC4zY8jzHrzMwm_u-10" value="" style="edgeStyle=none;curved=1;rounded=0;orthogonalLoop=1;jettySize=auto;html=1;fontSize=12;startSize=8;endSize=8;" edge="1" parent="1" source="_icEVC4zY8jzHrzMwm_u-7" target="_icEVC4zY8jzHrzMwm_u-9">
          <mxGeometry relative="1" as="geometry" />
        </mxCell>
        <mxCell id="_icEVC4zY8jzHrzMwm_u-15" value="SIM" style="edgeLabel;html=1;align=center;verticalAlign=middle;resizable=0;points=[];fontSize=12;labelBackgroundColor=none;" vertex="1" connectable="0" parent="_icEVC4zY8jzHrzMwm_u-10">
          <mxGeometry x="-0.0167" y="1" relative="1" as="geometry">
            <mxPoint x="19" y="-9" as="offset" />
          </mxGeometry>
        </mxCell>
        <mxCell id="_icEVC4zY8jzHrzMwm_u-13" style="edgeStyle=none;curved=1;rounded=0;orthogonalLoop=1;jettySize=auto;html=1;fontSize=12;startSize=8;endSize=8;" edge="1" parent="1" source="_icEVC4zY8jzHrzMwm_u-7" target="_icEVC4zY8jzHrzMwm_u-16">
          <mxGeometry relative="1" as="geometry">
            <mxPoint x="-1703" y="-1210" as="targetPoint" />
          </mxGeometry>
        </mxCell>
        <mxCell id="_icEVC4zY8jzHrzMwm_u-14" value="NÃO" style="edgeLabel;html=1;align=center;verticalAlign=middle;resizable=0;points=[];fontSize=12;labelBackgroundColor=none;" vertex="1" connectable="0" parent="_icEVC4zY8jzHrzMwm_u-13">
          <mxGeometry x="-0.2" y="3" relative="1" as="geometry">
            <mxPoint y="-7" as="offset" />
          </mxGeometry>
        </mxCell>
        <mxCell id="_icEVC4zY8jzHrzMwm_u-7" value="i &amp;lt;= 5" style="rhombus;whiteSpace=wrap;html=1;rounded=0;fillColor=#dae8fc;strokeColor=#6c8ebf;" vertex="1" parent="1">
          <mxGeometry x="-1843" y="-1250" width="80" height="80" as="geometry" />
        </mxCell>
        <mxCell id="_icEVC4zY8jzHrzMwm_u-11" style="edgeStyle=none;curved=0;rounded=0;orthogonalLoop=1;jettySize=auto;html=1;entryX=0;entryY=0.5;entryDx=0;entryDy=0;fontSize=12;startSize=8;endSize=8;exitX=0;exitY=0.5;exitDx=0;exitDy=0;" edge="1" parent="1" source="_icEVC4zY8jzHrzMwm_u-9" target="_icEVC4zY8jzHrzMwm_u-7">
          <mxGeometry relative="1" as="geometry">
            <Array as="points">
              <mxPoint x="-1913" y="-1070" />
              <mxPoint x="-1913" y="-1210" />
            </Array>
          </mxGeometry>
        </mxCell>
        <mxCell id="_icEVC4zY8jzHrzMwm_u-12" value="i = i + 1" style="edgeLabel;html=1;align=center;verticalAlign=middle;resizable=0;points=[];fontSize=12;labelBackgroundColor=none;" vertex="1" connectable="0" parent="_icEVC4zY8jzHrzMwm_u-11">
          <mxGeometry x="-0.05" y="-1" relative="1" as="geometry">
            <mxPoint x="-31" as="offset" />
          </mxGeometry>
        </mxCell>
        <mxCell id="_icEVC4zY8jzHrzMwm_u-9" value="&quot;estudar&quot;" style="shape=document;whiteSpace=wrap;html=1;boundedLbl=1;rounded=0;fillColor=#dae8fc;strokeColor=#6c8ebf;" vertex="1" parent="1">
          <mxGeometry x="-1863" y="-1110" width="120" height="80" as="geometry" />
        </mxCell>
        <mxCell id="_icEVC4zY8jzHrzMwm_u-16" value="FIM" style="rounded=1;whiteSpace=wrap;html=1;fillColor=#dae8fc;strokeColor=#6c8ebf;" vertex="1" parent="1">
          <mxGeometry x="-1713" y="-1240" width="120" height="60" as="geometry" />
        </mxCell>
      </root>
    </mxGraphModel>
  </diagram>
</mxfile>
